<?xml version="1.0" standalone="no"?>
<!DOCTYPE svg PUBLIC "-//W3C//DTD SVG 20010904//EN"
 "http://www.w3.org/TR/2001/REC-SVG-20010904/DTD/svg10.dtd">
<svg version="1.0" xmlns="http://www.w3.org/2000/svg"
 width="129.000000pt" height="109.000000pt" viewBox="0 0 129.000000 109.000000"
 preserveAspectRatio="xMidYMid meet">
<metadata>
Created by potrace 1.10, written by Peter Selinger 2001-2011
</metadata>
<g transform="translate(0.000000,109.000000) scale(0.100000,-0.100000)"
fill="#000000" stroke="none">
<path d="M1010 940 c-26 -26 -25 -60 0 -88 39 -42 110 -14 110 43 0 14 -9 34
-20 45 -11 11 -31 20 -45 20 -14 0 -34 -9 -45 -20z m90 -19 c13 -25 -2 -67
-27 -73 -46 -12 -79 24 -62 70 11 30 73 32 89 3z"/>
<path d="M890 869 c-134 -93 -307 -145 -530 -161 -80 -6 -151 -12 -158 -14 -9
-3 -12 -28 -10 -101 l3 -98 155 3 c230 5 387 -23 447 -80 30 -28 29 -50 -4
-75 -99 -72 -324 -52 -527 48 -32 16 -62 29 -67 29 -5 0 -9 -35 -9 -79 l0 -79
65 -16 c95 -24 259 -39 344 -31 199 18 338 97 348 197 7 74 -47 134 -157 176
-30 11 -73 28 -95 36 -39 14 -35 15 108 15 l147 1 0 130 c0 72 -3 130 -7 130
-5 0 -28 -14 -53 -31z m41 -12 c-1 -4 -1 -52 -1 -107 l0 -100 -172 0 c-171 0
-200 -7 -113 -29 111 -27 225 -81 260 -123 19 -22 25 -41 25 -76 0 -42 -4 -50
-49 -92 -66 -62 -150 -90 -296 -97 -113 -6 -312 11 -330 28 -5 5 -17 9 -27 9
-15 0 -18 9 -18 65 0 36 2 65 4 65 1 0 23 -11 47 -24 133 -70 288 -103 411
-86 241 33 200 170 -62 211 -94 15 -291 18 -357 6 l-43 -7 0 95 0 95 103 1
c56 0 125 4 152 9 100 16 215 43 215 50 0 4 17 11 37 15 38 7 157 66 183 91
14 14 32 15 31 1z"/>
</g>
</svg>
